<svg xmlns="http://www.w3.org/2000/svg" width="898.2520751953125" height="611.9661865234375" viewBox="-257.16107177734375 -124.58721160888672 898.2520751953125 611.9661865234375"><title>Neo4j Graph Visualization</title><desc>Created using Neo4j (http://www.neo4j.com/)</desc><g class="layer relationships"><g class="relationship" transform="translate(94.77116063795077 196.9327965185285) rotate(309.2485661897766)"><path class="outline" fill="#A5ABB6" stroke="none" d="M 25 6.5 L 202.3337684415335 6.5 L 202.3337684415335 9.5 L 221.3337684415335 0 L 202.3337684415335 -9.5 L 202.3337684415335 -6.5 L 25 -6.5 Z"/><text text-anchor="middle" pointer-events="none" font-size="8px" fill="#FFFFFF" x="113.66688422076675" y="3" font-family="sans-serif">SPONSORED</text></g><g class="relationship" transform="translate(357.4382118206667 -89.46331782668585) rotate(498.1614492040072)"><path class="outline" fill="#A5ABB6" stroke="none" d="M 25 0.5 L 33.624831687091984 0.5 L 33.624831687091984 -0.5 L 25 -0.5 Z M 102.74592543709198 0.5 L 111.37075712418397 0.5 L 111.37075712418397 3.5 L 118.37075712418397 0 L 111.37075712418397 -3.5 L 111.37075712418397 -0.5 L 102.74592543709198 -0.5 Z"/><text text-anchor="middle" pointer-events="none" font-size="8px" fill="#000000" x="68.18537856209198" y="3" transform="rotate(180 68.18537856209198 0)" font-family="sans-serif">COSPONSORED</text></g><g class="relationship" transform="translate(106.00159035989108 264.1917569887181) rotate(538.3437238789636)"><path class="outline" fill="#A5ABB6" stroke="none" d="M 25 6.5 L 121.08970194503249 6.5 L 121.08970194503249 9.5 L 140.0897019450325 0 L 121.08970194503249 -9.5 L 121.08970194503249 -6.5 L 25 -6.5 Z"/><text text-anchor="middle" pointer-events="none" font-size="8px" fill="#FFFFFF" x="73.04485097251624" y="3" transform="rotate(180 73.04485097251624 0)" font-family="sans-serif">SPONSORED</text></g><g class="relationship" transform="translate(9.199607999321817 165.49634455965037) rotate(483.39798588741644)"><path class="outline" fill="#A5ABB6" stroke="none" d="M 25 0.5 L 25.462279492386926 0.5 L 25.462279492386926 -0.5 L 25 -0.5 Z M 91.47009199238693 0.5 L 91.93237148477385 0.5 L 91.93237148477385 3.5 L 98.93237148477385 0 L 91.93237148477385 -3.5 L 91.93237148477385 -0.5 L 91.47009199238693 -0.5 Z"/><text text-anchor="middle" pointer-events="none" font-size="8px" fill="#000000" x="58.46618574238693" y="3" transform="rotate(180 58.46618574238693 0)" font-family="sans-serif">COSPONSOR…</text></g><g class="relationship" transform="translate(-72.00034588670802 146.4498660946538) rotate(443.95166029433)"><path class="outline" fill="#A5ABB6" stroke="none" d="M 25 0.5 L 25.095773546493135 0.5 L 25.095773546493135 -0.5 L 25 -0.5 Z M 91.10358604649313 0.5 L 91.19935959298627 0.5 L 91.19935959298627 3.5 L 98.19935959298627 0 L 91.19935959298627 -3.5 L 91.19935959298627 -0.5 L 91.10358604649313 -0.5 Z"/><text text-anchor="middle" pointer-events="none" font-size="8px" fill="#000000" x="58.099679796493135" y="3" font-family="sans-serif">COSPONSOR…</text></g><g class="relationship" transform="translate(-24.769600623940516 108.85041119523798) rotate(462.07409314326304)"><path class="outline" fill="#A5ABB6" stroke="none" d="M 25 0.5 L 43.807038077989475 0.5 L 43.807038077989475 -0.5 L 25 -0.5 Z M 112.92813182798947 0.5 L 131.73516990597895 0.5 L 131.73516990597895 3.5 L 138.73516990597895 0 L 131.73516990597895 -3.5 L 131.73516990597895 -0.5 L 112.92813182798947 -0.5 Z"/><text text-anchor="middle" pointer-events="none" font-size="8px" fill="#000000" x="78.36758495298947" y="3" transform="rotate(180 78.36758495298947 0)" font-family="sans-serif">COSPONSORED</text></g><g class="relationship" transform="translate(-203.55745340184384 165.60387184192896) rotate(395.5686109270618)"><path class="outline" fill="#A5ABB6" stroke="none" d="M 25 0.5 L 50.78555647099931 0.5 L 50.78555647099931 -0.5 L 25 -0.5 Z M 119.90665022099931 0.5 L 145.69220669199862 0.5 L 145.69220669199862 3.5 L 152.69220669199862 0 L 145.69220669199862 -3.5 L 145.69220669199862 -0.5 L 119.90665022099931 -0.5 Z"/><text text-anchor="middle" pointer-events="none" font-size="8px" fill="#000000" x="85.34610334599931" y="3" font-family="sans-serif">COSPONSORED</text></g><g class="relationship" transform="translate(-101.84012463061674 94.41650941573438) rotate(436.2160516577026)"><path class="outline" fill="#A5ABB6" stroke="none" d="M 25 0.5 L 51.800818899133205 0.5 L 51.800818899133205 -0.5 L 25 -0.5 Z M 120.9219126491332 0.5 L 147.7227315482664 0.5 L 147.7227315482664 3.5 L 154.7227315482664 0 L 147.7227315482664 -3.5 L 147.7227315482664 -0.5 L 120.9219126491332 -0.5 Z"/><text text-anchor="middle" pointer-events="none" font-size="8px" fill="#000000" x="86.3613657741332" y="3" font-family="sans-serif">COSPONSORED</text></g><g class="relationship" transform="translate(-158.15085867635648 119.44995341840621) rotate(416.45447904407905)"><path class="outline" fill="#A5ABB6" stroke="none" d="M 25 0.5 L 51.635292097334286 0.5 L 51.635292097334286 -0.5 L 25 -0.5 Z M 120.75638584733429 0.5 L 147.39167794466857 0.5 L 147.39167794466857 3.5 L 154.39167794466857 0 L 147.39167794466857 -3.5 L 147.39167794466857 -0.5 L 120.75638584733429 -0.5 Z"/><text text-anchor="middle" pointer-events="none" font-size="8px" fill="#000000" x="86.19583897233429" y="3" font-family="sans-serif">COSPONSORED</text></g><g class="relationship" transform="translate(-216.79831510985753 314.66180917846634) rotate(343.84712708200425)"><path class="outline" fill="#A5ABB6" stroke="none" d="M 25 0.5 L 44.07137676333572 0.5 L 44.07137676333572 -0.5 L 25 -0.5 Z M 113.19247051333572 0.5 L 132.26384727667144 0.5 L 132.26384727667144 3.5 L 139.26384727667144 0 L 132.26384727667144 -3.5 L 132.26384727667144 -0.5 L 113.19247051333572 -0.5 Z"/><text text-anchor="middle" pointer-events="none" font-size="8px" fill="#000000" x="78.63192363833572" y="3" font-family="sans-serif">COSPONSORED</text></g><g class="relationship" transform="translate(127.06839192069823 323.0949591491997) rotate(196.21933827552522)"><path class="outline" fill="#A5ABB6" stroke="none" d="M 25 0.5 L 58.83990807975414 0.5 L 58.83990807975414 -0.5 L 25 -0.5 Z M 127.96100182975414 0.5 L 161.80090990950828 0.5 L 161.80090990950828 3.5 L 168.80090990950828 0 L 161.80090990950828 -3.5 L 161.80090990950828 -0.5 L 127.96100182975414 -0.5 Z"/><text text-anchor="middle" pointer-events="none" font-size="8px" fill="#000000" x="93.40045495475414" y="3" transform="rotate(180 93.40045495475414 0)" font-family="sans-serif">COSPONSORED</text></g><g class="relationship" transform="translate(-140.65189064061045 177.5572991389791) rotate(408.2326745800816)"><path class="outline" fill="#A5ABB6" stroke="none" d="M 25 0.5 L 27.66074957863306 0.5 L 27.66074957863306 -0.5 L 25 -0.5 Z M 87.89121832863306 0.5 L 90.55196790726612 0.5 L 90.55196790726612 3.5 L 97.55196790726612 0 L 90.55196790726612 -3.5 L 90.55196790726612 -0.5 L 87.89121832863306 -0.5 Z"/><text text-anchor="middle" pointer-events="none" font-size="8px" fill="#000000" x="57.77598395363306" y="3" font-family="sans-serif">COSPONSO…</text></g><g class="relationship" transform="translate(-158.51700471537853 328.8454483516187) rotate(328.9586895311596)"><path class="outline" fill="#A5ABB6" stroke="none" d="M 25 0.5 L 27.5600303248234 0.5 L 27.5600303248234 -0.5 L 25 -0.5 Z M 81.5678428248234 0.5 L 84.1278731496468 0.5 L 84.1278731496468 3.5 L 91.1278731496468 0 L 84.1278731496468 -3.5 L 84.1278731496468 -0.5 L 81.5678428248234 -0.5 Z"/><text text-anchor="middle" pointer-events="none" font-size="8px" fill="#000000" x="54.5639365748234" y="3" font-family="sans-serif">COSPONS…</text></g><g class="relationship" transform="translate(-179.9688569443175 258.1773872843241) rotate(365.0960315987983)"><path class="outline" fill="#A5ABB6" stroke="none" d="M 25 0.5 L 27.099617323850225 0.5 L 27.099617323850225 -0.5 L 25 -0.5 Z M 87.33008607385023 0.5 L 89.42970339770045 0.5 L 89.42970339770045 3.5 L 96.42970339770045 0 L 89.42970339770045 -3.5 L 89.42970339770045 -0.5 L 87.33008607385023 -0.5 Z"/><text text-anchor="middle" pointer-events="none" font-size="8px" fill="#000000" x="57.214851698850225" y="3" font-family="sans-serif">COSPONSO…</text></g><g class="relationship" transform="translate(-108.29503149291901 395.6717440096447) rotate(291.25067558935893)"><path class="outline" fill="#A5ABB6" stroke="none" d="M 25 0.5 L 29.915760497721365 0.5 L 29.915760497721365 -0.5 L 25 -0.5 Z M 99.03685424772137 0.5 L 103.95261474544273 0.5 L 103.95261474544273 3.5 L 110.95261474544273 0 L 103.95261474544273 -3.5 L 103.95261474544273 -0.5 L 99.03685424772137 -0.5 Z"/><text text-anchor="middle" pointer-events="none" font-size="8px" fill="#000000" x="64.47630737272137" y="3" font-family="sans-serif">COSPONSORED</text></g><g class="relationship" transform="translate(-167.79600854590046 388.10735120589135) rotate(312.3956751195178)"><path class="outline" fill="#A5ABB6" stroke="none" d="M 25 0.5 L 42.60494176764112 0.5 L 42.60494176764112 -0.5 L 25 -0.5 Z M 111.72603551764112 0.5 L 129.33097728528224 0.5 L 129.33097728528224 3.5 L 136.33097728528224 0 L 129.33097728528224 -3.5 L 129.33097728528224 -0.5 L 111.72603551764112 -0.5 Z"/><text text-anchor="middle" pointer-events="none" font-size="8px" fill="#000000" x="77.16548864264112" y="3" font-family="sans-serif">COSPONSORED</text></g><g class="relationship" transform="translate(-228.1610711850518 222.53346184396872) rotate(375.3497703283403)"><path class="outline" fill="#A5ABB6" stroke="none" d="M 25 0.5 L 49.638846308958875 0.5 L 49.638846308958875 -0.5 L 25 -0.5 Z M 118.75994005895888 0.5 L 143.39878636791775 0.5 L 143.39878636791775 3.5 L 150.39878636791775 0 L 143.39878636791775 -3.5 L 143.39878636791775 -0.5 L 118.75994005895888 -0.5 Z"/><text text-anchor="middle" pointer-events="none" font-size="8px" fill="#000000" x="84.19939318395888" y="3" font-family="sans-serif">COSPONSORED</text></g><g class="relationship" transform="translate(-54.1598816265038 421.4688164737085) rotate(268.175010532493)"><path class="outline" fill="#A5ABB6" stroke="none" d="M 25 0.5 L 38.230849870221945 0.5 L 38.230849870221945 -0.5 L 25 -0.5 Z M 107.35194362022195 0.5 L 120.58279349044389 0.5 L 120.58279349044389 3.5 L 127.58279349044389 0 L 120.58279349044389 -3.5 L 120.58279349044389 -0.5 L 107.35194362022195 -0.5 Z"/><text text-anchor="middle" pointer-events="none" font-size="8px" fill="#000000" x="72.79139674522195" y="3" transform="rotate(180 72.79139674522195 0)" font-family="sans-serif">COSPONSORED</text></g><g class="relationship" transform="translate(-1.044633738183251 393.5846061107355) rotate(245.05187596088575)"><path class="outline" fill="#A5ABB6" stroke="none" d="M 25 0.5 L 30.662599998291725 0.5 L 30.662599998291725 -0.5 L 25 -0.5 Z M 99.78369374829173 0.5 L 105.44629374658345 0.5 L 105.44629374658345 3.5 L 112.44629374658345 0 L 105.44629374658345 -3.5 L 105.44629374658345 -0.5 L 99.78369374829173 -0.5 Z"/><text text-anchor="middle" pointer-events="none" font-size="8px" fill="#000000" x="65.22314687329173" y="3" transform="rotate(180 65.22314687329173 0)" font-family="sans-serif">COSPONSORED</text></g><g class="relationship" transform="translate(32.167285000364224 341.94861907285434) rotate(218.67362213075393)"><path class="outline" fill="#A5ABB6" stroke="none" d="M 25 0.5 L 27.89515916082955 0.5 L 27.89515916082955 -0.5 L 25 -0.5 Z M 81.90297166082955 0.5 L 84.7981308216591 0.5 L 84.7981308216591 3.5 L 91.7981308216591 0 L 84.7981308216591 -3.5 L 84.7981308216591 -0.5 L 81.90297166082955 -0.5 Z"/><text text-anchor="middle" pointer-events="none" font-size="8px" fill="#000000" x="54.89906541082955" y="3" transform="rotate(180 54.89906541082955 0)" font-family="sans-serif">COSPONS…</text></g><g class="relationship" transform="translate(612.0909830413102 -5.519545432833951) rotate(218.16976615011987)"><path class="outline" fill="#A5ABB6" stroke="none" d="M 25 6.5 L 101.74206106654006 6.5 L 101.74206106654006 9.5 L 120.74206106654006 0 L 101.74206106654006 -9.5 L 101.74206106654006 -6.5 L 25 -6.5 Z"/><text text-anchor="middle" pointer-events="none" font-size="8px" fill="#FFFFFF" x="63.37103053327003" y="3" transform="rotate(180 63.37103053327003 0)" font-family="sans-serif">SPONSORED</text></g><g class="relationship" transform="translate(357.4382118206667 -89.46331782668585) rotate(357.49665996368503)"><path class="outline" fill="#A5ABB6" stroke="none" d="M 25 0.5 L 32.042766837094106 0.5 L 32.042766837094106 -0.5 L 25 -0.5 Z M 101.1638605870941 0.5 L 108.20662742418821 0.5 L 108.20662742418821 3.5 L 115.20662742418821 0 L 108.20662742418821 -3.5 L 108.20662742418821 -0.5 L 101.1638605870941 -0.5 Z"/><text text-anchor="middle" pointer-events="none" font-size="8px" fill="#000000" x="66.6033137120941" y="3" font-family="sans-serif">COSPONSORED</text></g><g class="relationship" transform="translate(284.25655028362723 153.60654089028898) rotate(447.8423898247775)"><path class="outline" fill="#A5ABB6" stroke="none" d="M 25 6.5 L 137.38104692629204 6.5 L 137.38104692629204 9.5 L 156.38104692629204 0 L 137.38104692629204 -9.5 L 137.38104692629204 -6.5 L 25 -6.5 Z"/><text text-anchor="middle" pointer-events="none" font-size="8px" fill="#FFFFFF" x="81.19052346314602" y="3" font-family="sans-serif">SPONSORED</text></g><g class="relationship" transform="translate(254.02728448019596 452.6380685353088) rotate(287.4656534348299)"><path class="outline" fill="#A5ABB6" stroke="none" d="M 25 0.5 L 25.231829844930296 0.5 L 25.231829844930296 -0.5 L 25 -0.5 Z M 91.2396423449303 0.5 L 91.47147218986059 0.5 L 91.47147218986059 3.5 L 98.47147218986059 0 L 91.47147218986059 -3.5 L 91.47147218986059 -0.5 L 91.2396423449303 -0.5 Z"/><text text-anchor="middle" pointer-events="none" font-size="8px" fill="#000000" x="58.235736094930296" y="3" font-family="sans-serif">COSPONSOR…</text></g><g class="relationship" transform="translate(418.43770416888685 360.1437625191901) rotate(191.22956837416518)"><path class="outline" fill="#A5ABB6" stroke="none" d="M 25 0.5 L 26.858557798361957 0.5 L 26.858557798361957 -0.5 L 25 -0.5 Z M 95.97965154836196 0.5 L 97.83820934672391 0.5 L 97.83820934672391 3.5 L 104.83820934672391 0 L 97.83820934672391 -3.5 L 97.83820934672391 -0.5 L 95.97965154836196 -0.5 Z"/><text text-anchor="middle" pointer-events="none" font-size="8px" fill="#000000" x="61.41910467336196" y="3" transform="rotate(180 61.41910467336196 0)" font-family="sans-serif">COSPONSORED</text></g><g class="relationship" transform="translate(327.5936276037106 458.3789673151433) rotate(253.53409129663146)"><path class="outline" fill="#A5ABB6" stroke="none" d="M 25 0.5 L 26.340623484891125 0.5 L 26.340623484891125 -0.5 L 25 -0.5 Z M 95.46171723489113 0.5 L 96.80234071978225 0.5 L 96.80234071978225 3.5 L 103.80234071978225 0 L 96.80234071978225 -3.5 L 96.80234071978225 -0.5 L 95.46171723489113 -0.5 Z"/><text text-anchor="middle" pointer-events="none" font-size="8px" fill="#000000" x="60.901170359891125" y="3" transform="rotate(180 60.901170359891125 0)" font-family="sans-serif">COSPONSORED</text></g><g class="relationship" transform="translate(127.06839192069823 323.0949591491997) rotate(364.10248877828576)"><path class="outline" fill="#A5ABB6" stroke="none" d="M 25 0.5 L 44.15856663784626 0.5 L 44.15856663784626 -0.5 L 25 -0.5 Z M 113.27966038784626 0.5 L 132.43822702569253 0.5 L 132.43822702569253 3.5 L 139.43822702569253 0 L 132.43822702569253 -3.5 L 132.43822702569253 -0.5 L 113.27966038784626 -0.5 Z"/><text text-anchor="middle" pointer-events="none" font-size="8px" fill="#000000" x="78.71911351284626" y="3" font-family="sans-serif">COSPONSORED</text></g><g class="relationship" transform="translate(387.52236851671233 421.4239641146282) rotate(221.91214718663576)"><path class="outline" fill="#A5ABB6" stroke="none" d="M 25 0.5 L 26.73452741430164 0.5 L 26.73452741430164 -0.5 L 25 -0.5 Z M 95.85562116430164 0.5 L 97.59014857860328 0.5 L 97.59014857860328 3.5 L 104.59014857860328 0 L 97.59014857860328 -3.5 L 97.59014857860328 -0.5 L 95.85562116430164 -0.5 Z"/><text text-anchor="middle" pointer-events="none" font-size="8px" fill="#000000" x="61.29507428930164" y="3" transform="rotate(180 61.29507428930164 0)" font-family="sans-serif">COSPONSORED</text></g><g class="relationship" transform="translate(412.711745992437 289.2556697322748) rotate(519.4466805374057)"><path class="outline" fill="#A5ABB6" stroke="none" d="M 25 0.5 L 26.886858523016002 0.5 L 26.886858523016002 -0.5 L 25 -0.5 Z M 96.007952273016 0.5 L 97.894810796032 0.5 L 97.894810796032 3.5 L 104.894810796032 0 L 97.894810796032 -3.5 L 97.894810796032 -0.5 L 96.007952273016 -0.5 Z"/><text text-anchor="middle" pointer-events="none" font-size="8px" fill="#000000" x="61.447405398016" y="3" transform="rotate(180 61.447405398016 0)" font-family="sans-serif">COSPONSORED</text></g><g class="relationship" transform="translate(365.657111837787 240.15266264669697) rotate(488.2169213995843)"><path class="outline" fill="#A5ABB6" stroke="none" d="M 25 0.5 L 26.6555059217415 0.5 L 26.6555059217415 -0.5 L 25 -0.5 Z M 86.88597467174151 0.5 L 88.541480593483 0.5 L 88.541480593483 3.5 L 95.541480593483 0 L 88.541480593483 -3.5 L 88.541480593483 -0.5 L 86.88597467174151 -0.5 Z"/><text text-anchor="middle" pointer-events="none" font-size="8px" fill="#000000" x="56.7707402967415" y="3" transform="rotate(180 56.7707402967415 0)" font-family="sans-serif">COSPONSO…</text></g><g class="relationship" transform="translate(113.24139777210716 -47.427703197371244) rotate(531.1639555952725)"><path class="outline" fill="#A5ABB6" stroke="none" d="M 25 0.5 L 36.94964013505758 0.5 L 36.94964013505758 -0.5 L 25 -0.5 Z M 106.07073388505758 0.5 L 118.02037402011516 0.5 L 118.02037402011516 3.5 L 125.02037402011516 0 L 118.02037402011516 -3.5 L 118.02037402011516 -0.5 L 106.07073388505758 -0.5 Z"/><text text-anchor="middle" pointer-events="none" font-size="8px" fill="#000000" x="71.51018701005758" y="3" transform="rotate(180 71.51018701005758 0)" font-family="sans-serif">COSPONSORED</text></g><g class="relationship" transform="translate(90.57539838286284 127.82215378796923) rotate(230.47640523104218)"><path class="outline" fill="#A5ABB6" stroke="none" d="M 25 6.5 L 153.32044026461398 6.5 L 153.32044026461398 9.5 L 172.32044026461398 0 L 153.32044026461398 -9.5 L 153.32044026461398 -6.5 L 25 -6.5 Z"/><text text-anchor="middle" pointer-events="none" font-size="8px" fill="#FFFFFF" x="89.16022013230699" y="3" transform="rotate(180 89.16022013230699 0)" font-family="sans-serif">SPONSORED</text></g><g class="relationship" transform="translate(357.4382118206667 -89.46331782668585) rotate(424.59763707221566)"><path class="outline" fill="#A5ABB6" stroke="none" d="M 25 0.5 L 160.35611518266668 0.5 L 160.35611518266668 -0.5 L 25 -0.5 Z M 229.47720893266668 0.5 L 364.83332411533337 0.5 L 364.83332411533337 3.5 L 371.83332411533337 0 L 364.83332411533337 -3.5 L 364.83332411533337 -0.5 L 229.47720893266668 -0.5 Z"/><text text-anchor="middle" pointer-events="none" font-size="8px" fill="#000000" x="194.91666205766668" y="3" font-family="sans-serif">COSPONSORED</text></g><g class="relationship" transform="translate(363.1327868205414 164.0608180321616) rotate(392.5300657465043)"><path class="outline" fill="#A5ABB6" stroke="none" d="M 25 6.5 L 151.15375656701775 6.5 L 151.15375656701775 9.5 L 170.15375656701775 0 L 151.15375656701775 -9.5 L 151.15375656701775 -6.5 L 25 -6.5 Z"/><text text-anchor="middle" pointer-events="none" font-size="8px" fill="#FFFFFF" x="88.07687828350888" y="3" font-family="sans-serif">SPONSORED</text></g><g class="relationship" transform="translate(94.77116063795077 196.9327965185285) rotate(395.0910768454991)"><path class="outline" fill="#A5ABB6" stroke="none" d="M 25 0.5 L 81.90076789188875 0.5 L 81.90076789188875 -0.5 L 25 -0.5 Z M 151.02186164188873 0.5 L 207.9226295337775 0.5 L 207.9226295337775 3.5 L 214.9226295337775 0 L 207.9226295337775 -3.5 L 207.9226295337775 -0.5 L 151.02186164188873 -0.5 Z"/><text text-anchor="middle" pointer-events="none" font-size="8px" fill="#000000" x="116.46131476688875" y="3" font-family="sans-serif">COSPONSORED</text></g><g class="relationship" transform="translate(94.77116063795077 196.9327965185285) rotate(514.9030609267866)"><path class="outline" fill="#A5ABB6" stroke="none" d="M 25 0.5 L 46.85097554462958 0.5 L 46.85097554462958 -0.5 L 25 -0.5 Z M 115.97206929462958 0.5 L 137.82304483925915 0.5 L 137.82304483925915 3.5 L 144.82304483925915 0 L 137.82304483925915 -3.5 L 137.82304483925915 -0.5 L 115.97206929462958 -0.5 Z"/><text text-anchor="middle" pointer-events="none" font-size="8px" fill="#000000" x="81.41152241962958" y="3" transform="rotate(180 81.41152241962958 0)" font-family="sans-serif">COSPONSORED</text></g><g class="relationship" transform="translate(363.1327868205414 164.0608180321616) rotate(234.52714605409557)"><path class="outline" fill="#A5ABB6" stroke="none" d="M 25 0.5 L 58.8775736743557 0.5 L 58.8775736743557 -0.5 L 25 -0.5 Z M 127.9986674243557 0.5 L 161.8762410987114 0.5 L 161.8762410987114 3.5 L 168.8762410987114 0 L 161.8762410987114 -3.5 L 161.8762410987114 -0.5 L 127.9986674243557 -0.5 Z"/><text text-anchor="middle" pointer-events="none" font-size="8px" fill="#000000" x="93.4381205493557" y="3" transform="rotate(180 93.4381205493557 0)" font-family="sans-serif">COSPONSORED</text></g><g class="relationship" transform="translate(284.25655028362723 153.60654089028898) rotate(257.14950222654693)"><path class="outline" fill="#A5ABB6" stroke="none" d="M 25 0.5 L 37.551608266772064 0.5 L 37.551608266772064 -0.5 L 25 -0.5 Z M 106.67270201677206 0.5 L 119.22431028354413 0.5 L 119.22431028354413 3.5 L 126.22431028354413 0 L 119.22431028354413 -3.5 L 119.22431028354413 -0.5 L 106.67270201677206 -0.5 Z"/><text text-anchor="middle" pointer-events="none" font-size="8px" fill="#000000" x="72.11215514177206" y="3" transform="rotate(180 72.11215514177206 0)" font-family="sans-serif">COSPONSORED</text></g><g class="relationship" transform="translate(90.57539838286284 127.82215378796923) rotate(322.7615169116008)"><path class="outline" fill="#A5ABB6" stroke="none" d="M 25 0.5 L 62.45629829592902 0.5 L 62.45629829592902 -0.5 L 25 -0.5 Z M 131.577392045929 0.5 L 169.03369034185803 0.5 L 169.03369034185803 3.5 L 176.03369034185803 0 L 169.03369034185803 -3.5 L 169.03369034185803 -0.5 L 131.577392045929 -0.5 Z"/><text text-anchor="middle" pointer-events="none" font-size="8px" fill="#000000" x="97.01684517092902" y="3" font-family="sans-serif">COSPONSORED</text></g><g class="relationship" transform="translate(106.00159035989108 264.1917569887181) rotate(299.2706639767773)"><path class="outline" fill="#A5ABB6" stroke="none" d="M 25 0.5 L 109.83357438991524 0.5 L 109.83357438991524 -0.5 L 25 -0.5 Z M 178.95466813991524 0.5 L 263.7882425298305 0.5 L 263.7882425298305 3.5 L 270.7882425298305 0 L 263.7882425298305 -3.5 L 263.7882425298305 -0.5 L 178.95466813991524 -0.5 Z"/><text text-anchor="middle" pointer-events="none" font-size="8px" fill="#000000" x="144.39412126491524" y="3" font-family="sans-serif">COSPONSORED</text></g><g class="relationship" transform="translate(612.0909830413102 -5.519545432833951) rotate(538.1477774480436)"><path class="outline" fill="#A5ABB6" stroke="none" d="M 25 0.5 L 142.76788726664026 0.5 L 142.76788726664026 -0.5 L 25 -0.5 Z M 211.88898101664026 0.5 L 329.6568682832805 0.5 L 329.6568682832805 3.5 L 336.6568682832805 0 L 329.6568682832805 -3.5 L 329.6568682832805 -0.5 L 211.88898101664026 -0.5 Z"/><text text-anchor="middle" pointer-events="none" font-size="8px" fill="#000000" x="177.32843414164026" y="3" transform="rotate(180 177.32843414164026 0)" font-family="sans-serif">COSPONSORED</text></g><g class="relationship" transform="translate(90.57539838286284 127.82215378796923) rotate(496.66543100255075)"><path class="outline" fill="#A5ABB6" stroke="none" d="M 25 0.5 L 64.77352089896114 0.5 L 64.77352089896114 -0.5 L 25 -0.5 Z M 133.89461464896112 0.5 L 173.66813554792228 0.5 L 173.66813554792228 3.5 L 180.66813554792228 0 L 173.66813554792228 -3.5 L 173.66813554792228 -0.5 L 133.89461464896112 -0.5 Z"/><text text-anchor="middle" pointer-events="none" font-size="8px" fill="#000000" x="99.33406777396114" y="3" transform="rotate(180 99.33406777396114 0)" font-family="sans-serif">COSPONSORED</text></g><g class="relationship" transform="translate(106.00159035989108 264.1917569887181) rotate(380.89747469662706)"><path class="outline" fill="#A5ABB6" stroke="none" d="M 25 0.5 L 60.99730121070556 0.5 L 60.99730121070556 -0.5 L 25 -0.5 Z M 130.11839496070556 0.5 L 166.11569617141112 0.5 L 166.11569617141112 3.5 L 173.11569617141112 0 L 166.11569617141112 -3.5 L 166.11569617141112 -0.5 L 130.11839496070556 -0.5 Z"/><text text-anchor="middle" pointer-events="none" font-size="8px" fill="#000000" x="95.55784808570556" y="3" font-family="sans-serif">COSPONSORED</text></g><g class="relationship" transform="translate(612.0909830413102 -5.519545432833951) rotate(467.09389965235545)"><path class="outline" fill="#A5ABB6" stroke="none" d="M 25 0.5 L 105.54468991505715 0.5 L 105.54468991505715 -0.5 L 25 -0.5 Z M 174.66578366505715 0.5 L 255.2104735801143 0.5 L 255.2104735801143 3.5 L 262.2104735801143 0 L 255.2104735801143 -3.5 L 255.2104735801143 -0.5 L 174.66578366505715 -0.5 Z"/><text text-anchor="middle" pointer-events="none" font-size="8px" fill="#000000" x="140.10523679005715" y="3" transform="rotate(180 140.10523679005715 0)" font-family="sans-serif">COSPONSORED</text></g><g class="relationship" transform="translate(612.0909830413102 -5.519545432833951) rotate(493.3222093069847)"><path class="outline" fill="#A5ABB6" stroke="none" d="M 25 0.5 L 195.87438878310627 0.5 L 195.87438878310627 -0.5 L 25 -0.5 Z M 264.99548253310627 0.5 L 435.86987131621254 0.5 L 435.86987131621254 3.5 L 442.86987131621254 0 L 435.86987131621254 -3.5 L 435.86987131621254 -0.5 L 264.99548253310627 -0.5 Z"/><text text-anchor="middle" pointer-events="none" font-size="8px" fill="#000000" x="230.43493565810627" y="3" transform="rotate(180 230.43493565810627 0)" font-family="sans-serif">COSPONSORED</text></g><g class="relationship" transform="translate(363.1327868205414 164.0608180321616) rotate(472.8713955662221)"><path class="outline" fill="#A5ABB6" stroke="none" d="M 25 0.5 L 54.62556557707633 0.5 L 54.62556557707633 -0.5 L 25 -0.5 Z M 123.74665932707633 0.5 L 153.37222490415266 0.5 L 153.37222490415266 3.5 L 160.37222490415266 0 L 153.37222490415266 -3.5 L 153.37222490415266 -0.5 L 123.74665932707633 -0.5 Z"/><text text-anchor="middle" pointer-events="none" font-size="8px" fill="#000000" x="89.18611245207633" y="3" transform="rotate(180 89.18611245207633 0)" font-family="sans-serif">COSPONSORED</text></g><g class="relationship" transform="translate(90.57539838286284 127.82215378796923) rotate(405.9175283017054)"><path class="outline" fill="#A5ABB6" stroke="none" d="M 25 0.5 L 106.04745507063211 0.5 L 106.04745507063211 -0.5 L 25 -0.5 Z M 175.1685488206321 0.5 L 256.2160038912642 0.5 L 256.2160038912642 3.5 L 263.2160038912642 0 L 256.2160038912642 -3.5 L 256.2160038912642 -0.5 L 175.1685488206321 -0.5 Z"/><text text-anchor="middle" pointer-events="none" font-size="8px" fill="#000000" x="140.6080019456321" y="3" font-family="sans-serif">COSPONSORED</text></g></g><g class="layer nodes"><g class="node" transform="translate(94.77116063795077,196.9327965185285)"><circle class="outline" cx="0" cy="0" r="25" fill="#68BDF6" stroke="#5CA8DB" stroke-width="2px"/><text text-anchor="middle" pointer-events="none" y="0" font-size="10px" fill="#FFFFFF" font-family="sans-serif"> Theodore</text><text text-anchor="middle" pointer-events="none" y="10" font-size="10px" fill="#FFFFFF" font-family="sans-serif"> E. Deut…</text></g><g class="node" transform="translate(357.4382118206667,-89.46331782668585)"><circle class="outline" cx="0" cy="0" r="25" fill="#FF756E" stroke="#E06760" stroke-width="2px"/><text text-anchor="middle" pointer-events="none" y="0" font-size="10px" fill="#FFFFFF" font-family="sans-serif"> Walter B.</text><text text-anchor="middle" pointer-events="none" y="10" font-size="10px" fill="#FFFFFF" font-family="sans-serif"> Jones</text></g><g class="node" transform="translate(250.6230747970236,6.169838039792282)"><circle class="outline" cx="0" cy="0" r="25" fill="#FB95AF" stroke="#E0849B" stroke-width="2px"/><text text-anchor="middle" pointer-events="none" y="5" font-size="10px" fill="#FFFFFF" font-family="sans-serif"> hjres22-…</text></g><g class="node" transform="translate(-59.01913845096615,268.96341823331386)"><circle class="outline" cx="0" cy="0" r="25" fill="#FB95AF" stroke="#E0849B" stroke-width="2px"/><text text-anchor="middle" pointer-events="none" y="5" font-size="10px" fill="#FFFFFF" font-family="sans-serif"> hjres47-…</text></g><g class="node" transform="translate(9.199607999321817,165.49634455965037)"><circle class="outline" cx="0" cy="0" r="25" fill="#FF756E" stroke="#E06760" stroke-width="2px"/><text text-anchor="middle" pointer-events="none" y="0" font-size="10px" fill="#FFFFFF" font-family="sans-serif"> Ryan K.</text><text text-anchor="middle" pointer-events="none" y="10" font-size="10px" fill="#FFFFFF" font-family="sans-serif"> Zinke</text></g><g class="node" transform="translate(106.00159035989108,264.1917569887181)"><circle class="outline" cx="0" cy="0" r="25" fill="#68BDF6" stroke="#5CA8DB" stroke-width="2px"/><text text-anchor="middle" pointer-events="none" y="0" font-size="10px" fill="#FFFFFF" font-family="sans-serif"> John B.</text><text text-anchor="middle" pointer-events="none" y="10" font-size="10px" fill="#FFFFFF" font-family="sans-serif"> Larson</text></g><g class="node" transform="translate(-72.00034588670802,146.4498660946538)"><circle class="outline" cx="0" cy="0" r="25" fill="#FF756E" stroke="#E06760" stroke-width="2px"/><text text-anchor="middle" pointer-events="none" y="0" font-size="10px" fill="#FFFFFF" font-family="sans-serif"> Rob</text><text text-anchor="middle" pointer-events="none" y="10" font-size="10px" fill="#FFFFFF" font-family="sans-serif"> Bishop</text></g><g class="node" transform="translate(-24.769600623940516,108.85041119523798)"><circle class="outline" cx="0" cy="0" r="25" fill="#FF756E" stroke="#E06760" stroke-width="2px"/><text text-anchor="middle" pointer-events="none" y="0" font-size="10px" fill="#FFFFFF" font-family="sans-serif"> Susan W.</text><text text-anchor="middle" pointer-events="none" y="10" font-size="10px" fill="#FFFFFF" font-family="sans-serif"> Brooks</text></g><g class="node" transform="translate(-203.55745340184384,165.60387184192896)"><circle class="outline" cx="0" cy="0" r="25" fill="#FF756E" stroke="#E06760" stroke-width="2px"/><text text-anchor="middle" pointer-events="none" y="0" font-size="10px" fill="#FFFFFF" font-family="sans-serif"> Bradley</text><text text-anchor="middle" pointer-events="none" y="10" font-size="10px" fill="#FFFFFF" font-family="sans-serif"> Byrne</text></g><g class="node" transform="translate(-101.84012463061674,94.41650941573438)"><circle class="outline" cx="0" cy="0" r="25" fill="#FF756E" stroke="#E06760" stroke-width="2px"/><text text-anchor="middle" pointer-events="none" y="-5" font-size="10px" fill="#FFFFFF" font-family="sans-serif"> Michael</text><text text-anchor="middle" pointer-events="none" y="5" font-size="10px" fill="#FFFFFF" font-family="sans-serif"> G.</text><text text-anchor="middle" pointer-events="none" y="15" font-size="10px" fill="#FFFFFF" font-family="sans-serif"> Fitzpa…</text></g><g class="node" transform="translate(-158.15085867635648,119.44995341840621)"><circle class="outline" cx="0" cy="0" r="25" fill="#FF756E" stroke="#E06760" stroke-width="2px"/><text text-anchor="middle" pointer-events="none" y="0" font-size="10px" fill="#FFFFFF" font-family="sans-serif"> Jeff</text><text text-anchor="middle" pointer-events="none" y="10" font-size="10px" fill="#FFFFFF" font-family="sans-serif"> Fortenb…</text></g><g class="node" transform="translate(-216.79831510985753,314.66180917846634)"><circle class="outline" cx="0" cy="0" r="25" fill="#FF756E" stroke="#E06760" stroke-width="2px"/><text text-anchor="middle" pointer-events="none" y="0" font-size="10px" fill="#FFFFFF" font-family="sans-serif"> Stephen</text><text text-anchor="middle" pointer-events="none" y="10" font-size="10px" fill="#FFFFFF" font-family="sans-serif"> Knight</text></g><g class="node" transform="translate(127.06839192069823,323.0949591491997)"><circle class="outline" cx="0" cy="0" r="25" fill="#FF756E" stroke="#E06760" stroke-width="2px"/><text text-anchor="middle" pointer-events="none" y="0" font-size="10px" fill="#FFFFFF" font-family="sans-serif"> Leonard</text><text text-anchor="middle" pointer-events="none" y="10" font-size="10px" fill="#FFFFFF" font-family="sans-serif"> Lance</text></g><g class="node" transform="translate(-140.65189064061045,177.5572991389791)"><circle class="outline" cx="0" cy="0" r="25" fill="#FF756E" stroke="#E06760" stroke-width="2px"/><text text-anchor="middle" pointer-events="none" y="0" font-size="10px" fill="#FFFFFF" font-family="sans-serif"> Kristi L.</text><text text-anchor="middle" pointer-events="none" y="10" font-size="10px" fill="#FFFFFF" font-family="sans-serif"> Noem</text></g><g class="node" transform="translate(-158.51700471537853,328.8454483516187)"><circle class="outline" cx="0" cy="0" r="25" fill="#FF756E" stroke="#E06760" stroke-width="2px"/><text text-anchor="middle" pointer-events="none" y="0" font-size="10px" fill="#FFFFFF" font-family="sans-serif"> Dennis</text><text text-anchor="middle" pointer-events="none" y="10" font-size="10px" fill="#FFFFFF" font-family="sans-serif"> A. Ross</text></g><g class="node" transform="translate(-179.9688569443175,258.1773872843241)"><circle class="outline" cx="0" cy="0" r="25" fill="#FF756E" stroke="#E06760" stroke-width="2px"/><text text-anchor="middle" pointer-events="none" y="0" font-size="10px" fill="#FFFFFF" font-family="sans-serif"> Lamar</text><text text-anchor="middle" pointer-events="none" y="10" font-size="10px" fill="#FFFFFF" font-family="sans-serif"> Smith</text></g><g class="node" transform="translate(-108.29503149291901,395.6717440096447)"><circle class="outline" cx="0" cy="0" r="25" fill="#FF756E" stroke="#E06760" stroke-width="2px"/><text text-anchor="middle" pointer-events="none" y="0" font-size="10px" fill="#FFFFFF" font-family="sans-serif"> Chris</text><text text-anchor="middle" pointer-events="none" y="10" font-size="10px" fill="#FFFFFF" font-family="sans-serif"> Stewart</text></g><g class="node" transform="translate(-167.79600854590046,388.10735120589135)"><circle class="outline" cx="0" cy="0" r="25" fill="#FF756E" stroke="#E06760" stroke-width="2px"/><text text-anchor="middle" pointer-events="none" y="0" font-size="10px" fill="#FFFFFF" font-family="sans-serif"> Jackie</text><text text-anchor="middle" pointer-events="none" y="10" font-size="10px" fill="#FFFFFF" font-family="sans-serif"> Walorski</text></g><g class="node" transform="translate(-228.1610711850518,222.53346184396872)"><circle class="outline" cx="0" cy="0" r="25" fill="#FF756E" stroke="#E06760" stroke-width="2px"/><text text-anchor="middle" pointer-events="none" y="0" font-size="10px" fill="#FFFFFF" font-family="sans-serif"> Bruce</text><text text-anchor="middle" pointer-events="none" y="10" font-size="10px" fill="#FFFFFF" font-family="sans-serif"> Wester…</text></g><g class="node" transform="translate(-54.1598816265038,421.4688164737085)"><circle class="outline" cx="0" cy="0" r="25" fill="#FF756E" stroke="#E06760" stroke-width="2px"/><text text-anchor="middle" pointer-events="none" y="0" font-size="10px" fill="#FFFFFF" font-family="sans-serif"> David</text><text text-anchor="middle" pointer-events="none" y="10" font-size="10px" fill="#FFFFFF" font-family="sans-serif"> Young</text></g><g class="node" transform="translate(-1.044633738183251,393.5846061107355)"><circle class="outline" cx="0" cy="0" r="25" fill="#FF756E" stroke="#E06760" stroke-width="2px"/><text text-anchor="middle" pointer-events="none" y="0" font-size="10px" fill="#FFFFFF" font-family="sans-serif"> Don</text><text text-anchor="middle" pointer-events="none" y="10" font-size="10px" fill="#FFFFFF" font-family="sans-serif"> Young</text></g><g class="node" transform="translate(32.167285000364224,341.94861907285434)"><circle class="outline" cx="0" cy="0" r="25" fill="#FF756E" stroke="#E06760" stroke-width="2px"/><text text-anchor="middle" pointer-events="none" y="0" font-size="10px" fill="#FFFFFF" font-family="sans-serif"> Todd C.</text><text text-anchor="middle" pointer-events="none" y="10" font-size="10px" fill="#FFFFFF" font-family="sans-serif"> Young</text></g><g class="node" transform="translate(497.5110368507305,-95.5872105235142)"><circle class="outline" cx="0" cy="0" r="25" fill="#FB95AF" stroke="#E0849B" stroke-width="2px"/><text text-anchor="middle" pointer-events="none" y="5" font-size="10px" fill="#FFFFFF" font-family="sans-serif"> hjres77-…</text></g><g class="node" transform="translate(612.0909830413102,-5.519545432833951)"><circle class="outline" cx="0" cy="0" r="25" fill="#68BDF6" stroke="#5CA8DB" stroke-width="2px"/><text text-anchor="middle" pointer-events="none" y="0" font-size="10px" fill="#FFFFFF" font-family="sans-serif"> Peter A.</text><text text-anchor="middle" pointer-events="none" y="10" font-size="10px" fill="#FFFFFF" font-family="sans-serif"> DeFazio</text></g><g class="node" transform="translate(291.08527498480373,334.85899660615866)"><circle class="outline" cx="0" cy="0" r="25" fill="#FB95AF" stroke="#E0849B" stroke-width="2px"/><text text-anchor="middle" pointer-events="none" y="5" font-size="10px" fill="#FFFFFF" font-family="sans-serif"> hjres52-…</text></g><g class="node" transform="translate(254.02728448019596,452.6380685353088)"><circle class="outline" cx="0" cy="0" r="25" fill="#FF756E" stroke="#E06760" stroke-width="2px"/><text text-anchor="middle" pointer-events="none" y="5" font-size="10px" fill="#FFFFFF" font-family="sans-serif"> Tom Reed</text></g><g class="node" transform="translate(284.25655028362723,153.60654089028898)"><circle class="outline" cx="0" cy="0" r="25" fill="#68BDF6" stroke="#5CA8DB" stroke-width="2px"/><text text-anchor="middle" pointer-events="none" y="-5" font-size="10px" fill="#FFFFFF" font-family="sans-serif"> Carolyn</text><text text-anchor="middle" pointer-events="none" y="5" font-size="10px" fill="#FFFFFF" font-family="sans-serif"> B.</text><text text-anchor="middle" pointer-events="none" y="15" font-size="10px" fill="#FFFFFF" font-family="sans-serif"> Malon…</text></g><g class="node" transform="translate(418.43770416888685,360.1437625191901)"><circle class="outline" cx="0" cy="0" r="25" fill="#FF756E" stroke="#E06760" stroke-width="2px"/><text text-anchor="middle" pointer-events="none" y="-5" font-size="10px" fill="#FFFFFF" font-family="sans-serif"> Cynthia</text><text text-anchor="middle" pointer-events="none" y="5" font-size="10px" fill="#FFFFFF" font-family="sans-serif"> M.</text><text text-anchor="middle" pointer-events="none" y="15" font-size="10px" fill="#FFFFFF" font-family="sans-serif"> Lummis</text></g><g class="node" transform="translate(327.5936276037106,458.3789673151433)"><circle class="outline" cx="0" cy="0" r="25" fill="#FF756E" stroke="#E06760" stroke-width="2px"/><text text-anchor="middle" pointer-events="none" y="0" font-size="10px" fill="#FFFFFF" font-family="sans-serif"> Frank A.</text><text text-anchor="middle" pointer-events="none" y="10" font-size="10px" fill="#FFFFFF" font-family="sans-serif"> LoBiondo</text></g><g class="node" transform="translate(387.52236851671233,421.4239641146282)"><circle class="outline" cx="0" cy="0" r="25" fill="#FF756E" stroke="#E06760" stroke-width="2px"/><text text-anchor="middle" pointer-events="none" y="-5" font-size="10px" fill="#FFFFFF" font-family="sans-serif"> Rodney</text><text text-anchor="middle" pointer-events="none" y="5" font-size="10px" fill="#FFFFFF" font-family="sans-serif"> P.</text><text text-anchor="middle" pointer-events="none" y="15" font-size="10px" fill="#FFFFFF" font-family="sans-serif"> Frelin…</text></g><g class="node" transform="translate(412.711745992437,289.2556697322748)"><circle class="outline" cx="0" cy="0" r="25" fill="#FF756E" stroke="#E06760" stroke-width="2px"/><text text-anchor="middle" pointer-events="none" y="0" font-size="10px" fill="#FFFFFF" font-family="sans-serif"> Renee L.</text><text text-anchor="middle" pointer-events="none" y="10" font-size="10px" fill="#FFFFFF" font-family="sans-serif"> Ellmers</text></g><g class="node" transform="translate(365.657111837787,240.15266264669697)"><circle class="outline" cx="0" cy="0" r="25" fill="#FF756E" stroke="#E06760" stroke-width="2px"/><text text-anchor="middle" pointer-events="none" y="0" font-size="10px" fill="#FFFFFF" font-family="sans-serif"> Charles</text><text text-anchor="middle" pointer-events="none" y="10" font-size="10px" fill="#FFFFFF" font-family="sans-serif"> W. Dent</text></g><g class="node" transform="translate(90.57539838286284,127.82215378796923)"><circle class="outline" cx="0" cy="0" r="25" fill="#68BDF6" stroke="#5CA8DB" stroke-width="2px"/><text text-anchor="middle" pointer-events="none" y="5" font-size="10px" fill="#FFFFFF" font-family="sans-serif"> Ted Lieu</text></g><g class="node" transform="translate(-34.99852597324089,-24.383449486117343)"><circle class="outline" cx="0" cy="0" r="25" fill="#FB95AF" stroke="#E0849B" stroke-width="2px"/><text text-anchor="middle" pointer-events="none" y="5" font-size="10px" fill="#FFFFFF" font-family="sans-serif"> hjres90-…</text></g><g class="node" transform="translate(113.24139777210716,-47.427703197371244)"><circle class="outline" cx="0" cy="0" r="25" fill="#FF756E" stroke="#E06760" stroke-width="2px"/><text text-anchor="middle" pointer-events="none" y="0" font-size="10px" fill="#FFFFFF" font-family="sans-serif"> Ted S.</text><text text-anchor="middle" pointer-events="none" y="10" font-size="10px" fill="#FFFFFF" font-family="sans-serif"> Yoho</text></g><g class="node" transform="translate(527.668750255024,269.00320908032404)"><circle class="outline" cx="0" cy="0" r="25" fill="#FB95AF" stroke="#E0849B" stroke-width="2px"/><text text-anchor="middle" pointer-events="none" y="5" font-size="10px" fill="#FFFFFF" font-family="sans-serif"> hjres48-…</text></g><g class="node" transform="translate(363.1327868205414,164.0608180321616)"><circle class="outline" cx="0" cy="0" r="25" fill="#68BDF6" stroke="#5CA8DB" stroke-width="2px"/><text text-anchor="middle" pointer-events="none" y="0" font-size="10px" fill="#FFFFFF" font-family="sans-serif"> Richard</text><text text-anchor="middle" pointer-events="none" y="10" font-size="10px" fill="#FFFFFF" font-family="sans-serif"> M. Nolan</text></g></g></svg>