<svg xmlns="http://www.w3.org/2000/svg" width="996.9224243164062" height="676.06005859375" viewBox="-455.182373046875 -329.0343322753906 996.9224243164062 676.06005859375"><title>Neo4j Graph Visualization</title><desc>Created using Neo4j (http://www.neo4j.com/)</desc><g class="layer relationships"><g class="relationship" transform="translate(418.97023346777985 -155.82437975061683) rotate(514.9687783149141)"><path class="outline" fill="#A5ABB6" stroke="none" d="M 25 6.5 L 152.44013492926047 6.5 L 152.44013492926047 9.5 L 171.44013492926047 0 L 152.44013492926047 -9.5 L 152.44013492926047 -6.5 L 25 -6.5 Z"/><text text-anchor="middle" pointer-events="none" font-size="8px" fill="#FFFFFF" x="88.72006746463023" y="3" transform="rotate(180 88.72006746463023 0)" font-family="sans-serif">SPONSORED</text></g><g class="relationship" transform="translate(-82.26920198627052 239.9748069803471) rotate(315.9519235189495)"><path class="outline" fill="#A5ABB6" stroke="none" d="M 25 0.5 L 186.806569420958 0.5 L 186.806569420958 -0.5 L 25 -0.5 Z M 255.927663170958 0.5 L 417.734232591916 0.5 L 417.734232591916 3.5 L 424.734232591916 0 L 417.734232591916 -3.5 L 417.734232591916 -0.5 L 255.927663170958 -0.5 Z"/><text text-anchor="middle" pointer-events="none" font-size="8px" fill="#000000" x="221.367116295958" y="3" font-family="sans-serif">COSPONSORED</text></g><g class="relationship" transform="translate(458.2051756456219 -67.77950858015474) rotate(181.29977786145338)"><path class="outline" fill="#A5ABB6" stroke="none" d="M 25 0.5 L 70.57985699905993 0.5 L 70.57985699905993 -0.5 L 25 -0.5 Z M 139.70095074905993 0.5 L 185.28080774811986 0.5 L 185.28080774811986 3.5 L 192.28080774811986 0 L 185.28080774811986 -3.5 L 185.28080774811986 -0.5 L 139.70095074905993 -0.5 Z"/><text text-anchor="middle" pointer-events="none" font-size="8px" fill="#000000" x="105.14040387405993" y="3" transform="rotate(180 105.14040387405993 0)" font-family="sans-serif">COSPONSORED</text></g><g class="relationship" transform="translate(177.01741113548667 -266.5451282102532) rotate(431.73799673984763)"><path class="outline" fill="#A5ABB6" stroke="none" d="M 25 0.5 L 63.99826840958609 0.5 L 63.99826840958609 -0.5 L 25 -0.5 Z M 133.1193621595861 0.5 L 172.11763056917218 0.5 L 172.11763056917218 3.5 L 179.11763056917218 0 L 172.11763056917218 -3.5 L 172.11763056917218 -0.5 L 133.1193621595861 -0.5 Z"/><text text-anchor="middle" pointer-events="none" font-size="8px" fill="#000000" x="98.55881528458609" y="3" font-family="sans-serif">COSPONSORED</text></g><g class="relationship" transform="translate(396.00304562827415 -234.71856126128853) rotate(520.7830470940107)"><path class="outline" fill="#A5ABB6" stroke="none" d="M 25 6.5 L 180.34334765138468 6.5 L 180.34334765138468 9.5 L 199.34334765138468 0 L 180.34334765138468 -9.5 L 180.34334765138468 -6.5 L 25 -6.5 Z"/><text text-anchor="middle" pointer-events="none" font-size="8px" fill="#FFFFFF" x="102.67167382569234" y="3" transform="rotate(180 102.67167382569234 0)" font-family="sans-serif">SPONSORED</text></g><g class="relationship" transform="translate(276.93678849695306 -264.1710576617415) rotate(491.92944144029354)"><path class="outline" fill="#A5ABB6" stroke="none" d="M 25 0.5 L 31.360574591477345 0.5 L 31.360574591477345 -0.5 L 25 -0.5 Z M 100.48166834147735 0.5 L 106.84224293295469 0.5 L 106.84224293295469 3.5 L 113.84224293295469 0 L 106.84224293295469 -3.5 L 106.84224293295469 -0.5 L 100.48166834147735 -0.5 Z"/><text text-anchor="middle" pointer-events="none" font-size="8px" fill="#000000" x="65.92112146647735" y="3" transform="rotate(180 65.92112146647735 0)" font-family="sans-serif">COSPONSORED</text></g><g class="relationship" transform="translate(-163.51121632097772 -135.59018849199737) rotate(388.2650971744921)"><path class="outline" fill="#A5ABB6" stroke="none" d="M 25 6.5 L 130.06692747752916 6.5 L 130.06692747752916 9.5 L 149.06692747752916 0 L 130.06692747752916 -9.5 L 130.06692747752916 -6.5 L 25 -6.5 Z"/><text text-anchor="middle" pointer-events="none" font-size="8px" fill="#FFFFFF" x="77.53346373876458" y="3" font-family="sans-serif">SPONSORED</text></g><g class="relationship" transform="translate(-11.362206229970404 236.40806240913716) rotate(270.2301604114646)"><path class="outline" fill="#A5ABB6" stroke="none" d="M 25 0.5 L 106.72489670185948 0.5 L 106.72489670185948 -0.5 L 25 -0.5 Z M 175.84599045185948 0.5 L 257.57088715371896 0.5 L 257.57088715371896 3.5 L 264.57088715371896 0 L 257.57088715371896 -3.5 L 257.57088715371896 -0.5 L 175.84599045185948 -0.5 Z"/><text text-anchor="middle" pointer-events="none" font-size="8px" fill="#000000" x="141.28544357685948" y="3" font-family="sans-serif">COSPONSORED</text></g><g class="relationship" transform="translate(-340.6957241591673 -256.9352824284049) rotate(381.50925695299384)"><path class="outline" fill="#A5ABB6" stroke="none" d="M 25 6.5 L 244.79727431482542 6.5 L 244.79727431482542 9.5 L 263.7972743148254 0 L 244.79727431482542 -9.5 L 244.79727431482542 -6.5 L 25 -6.5 Z"/><text text-anchor="middle" pointer-events="none" font-size="8px" fill="#FFFFFF" x="134.8986371574127" y="3" font-family="sans-serif">SPONSORED</text></g><g class="relationship" transform="translate(-143.90172315783582 -267.17414493093685) rotate(418.2394800357171)"><path class="outline" fill="#A5ABB6" stroke="none" d="M 25 0.5 L 30.22881809499016 0.5 L 30.22881809499016 -0.5 L 25 -0.5 Z M 99.34991184499016 0.5 L 104.57872993998032 0.5 L 104.57872993998032 3.5 L 111.57872993998032 0 L 104.57872993998032 -3.5 L 104.57872993998032 -0.5 L 99.34991184499016 -0.5 Z"/><text text-anchor="middle" pointer-events="none" font-size="8px" fill="#000000" x="64.78936496999016" y="3" font-family="sans-serif">COSPONSORED</text></g><g class="relationship" transform="translate(29.572760165436193 -300.0343192750024) rotate(454.2884980462154)"><path class="outline" fill="#A5ABB6" stroke="none" d="M 25 0.5 L 45.005901907602606 0.5 L 45.005901907602606 -0.5 L 25 -0.5 Z M 114.1269956576026 0.5 L 134.1328975652052 0.5 L 134.1328975652052 3.5 L 141.1328975652052 0 L 134.1328975652052 -3.5 L 134.1328975652052 -0.5 L 114.1269956576026 -0.5 Z"/><text text-anchor="middle" pointer-events="none" font-size="8px" fill="#000000" x="79.5664487826026" y="3" transform="rotate(180 79.5664487826026 0)" font-family="sans-serif">COSPONSORED</text></g><g class="relationship" transform="translate(-9.416325473655288 -254.45712755830453) rotate(437.5261632513775)"><path class="outline" fill="#A5ABB6" stroke="none" d="M 25 6.5 L 78.99386339925168 6.5 L 78.99386339925168 9.5 L 97.99386339925168 0 L 78.99386339925168 -9.5 L 78.99386339925168 -6.5 L 25 -6.5 Z"/><text text-anchor="middle" pointer-events="none" font-size="8px" fill="#FFFFFF" x="51.99693169962584" y="3" font-family="sans-serif">SPONSO…</text></g><g class="relationship" transform="translate(177.01741113548667 -266.5451282102532) rotate(500.41609096760953)"><path class="outline" fill="#A5ABB6" stroke="none" d="M 25 0.5 L 65.6564892594402 0.5 L 65.6564892594402 -0.5 L 25 -0.5 Z M 134.7775830094402 0.5 L 175.4340722688804 0.5 L 175.4340722688804 3.5 L 182.4340722688804 0 L 175.4340722688804 -3.5 L 175.4340722688804 -0.5 L 134.7775830094402 -0.5 Z"/><text text-anchor="middle" pointer-events="none" font-size="8px" fill="#000000" x="100.2170361344402" y="3" transform="rotate(180 100.2170361344402 0)" font-family="sans-serif">COSPONSORED</text></g><g class="relationship" transform="translate(354.0148325939899 97.30236016281495) rotate(215.58038254856058)"><path class="outline" fill="#A5ABB6" stroke="none" d="M 25 6.5 L 296.45469940981127 6.5 L 296.45469940981127 9.5 L 315.45469940981127 0 L 296.45469940981127 -9.5 L 296.45469940981127 -6.5 L 25 -6.5 Z"/><text text-anchor="middle" pointer-events="none" font-size="8px" fill="#FFFFFF" x="160.72734970490563" y="3" transform="rotate(180 160.72734970490563 0)" font-family="sans-serif">SPONSORED</text></g><g class="relationship" transform="translate(29.572760165436193 -300.0343192750024) rotate(436.57730491059715)"><path class="outline" fill="#A5ABB6" stroke="none" d="M 25 0.5 L 64.35964847833363 0.5 L 64.35964847833363 -0.5 L 25 -0.5 Z M 133.4807422283336 0.5 L 172.84039070666725 0.5 L 172.84039070666725 3.5 L 179.84039070666725 0 L 172.84039070666725 -3.5 L 172.84039070666725 -0.5 L 133.4807422283336 -0.5 Z"/><text text-anchor="middle" pointer-events="none" font-size="8px" fill="#000000" x="98.92019535333363" y="3" font-family="sans-serif">COSPONSORED</text></g><g class="relationship" transform="translate(247.44737510392767 201.11763847932272) rotate(201.60776769013825)"><path class="outline" fill="#A5ABB6" stroke="none" d="M 25 6.5 L 188.73071450476678 6.5 L 188.73071450476678 9.5 L 207.73071450476678 0 L 188.73071450476678 -9.5 L 188.73071450476678 -6.5 L 25 -6.5 Z"/><text text-anchor="middle" pointer-events="none" font-size="8px" fill="#FFFFFF" x="106.86535725238339" y="3" transform="rotate(180 106.86535725238339 0)" font-family="sans-serif">SPONSORED</text></g><g class="relationship" transform="translate(61.96547349785253 270.9482260891746) rotate(258.7654409034245)"><path class="outline" fill="#A5ABB6" stroke="none" d="M 25 0.5 L 41.22565609094394 0.5 L 41.22565609094394 -0.5 L 25 -0.5 Z M 110.34674984094394 0.5 L 126.57240593188789 0.5 L 126.57240593188789 3.5 L 133.5724059318879 0 L 126.57240593188789 -3.5 L 126.57240593188789 -0.5 L 110.34674984094394 -0.5 Z"/><text text-anchor="middle" pointer-events="none" font-size="8px" fill="#000000" x="75.78620296594394" y="3" transform="rotate(180 75.78620296594394 0)" font-family="sans-serif">COSPONSORED</text></g><g class="relationship" transform="translate(29.572760165436193 -300.0343192750024) rotate(485.95495220252246)"><path class="outline" fill="#A5ABB6" stroke="none" d="M 25 0.5 L 100.75933798166886 0.5 L 100.75933798166886 -0.5 L 25 -0.5 Z M 169.88043173166886 0.5 L 245.63976971333773 0.5 L 245.63976971333773 3.5 L 252.63976971333773 0 L 245.63976971333773 -3.5 L 245.63976971333773 -0.5 L 169.88043173166886 -0.5 Z"/><text text-anchor="middle" pointer-events="none" font-size="8px" fill="#000000" x="135.31988485666886" y="3" transform="rotate(180 135.31988485666886 0)" font-family="sans-serif">COSPONSORED</text></g><g class="relationship" transform="translate(-236.64081717026846 225.2740090871852) rotate(288.9496943784971)"><path class="outline" fill="#A5ABB6" stroke="none" d="M 25 6.5 L 273.787596147308 6.5 L 273.787596147308 9.5 L 292.787596147308 0 L 273.787596147308 -9.5 L 273.787596147308 -6.5 L 25 -6.5 Z"/><text text-anchor="middle" pointer-events="none" font-size="8px" fill="#FFFFFF" x="149.393798073654" y="3" font-family="sans-serif">SPONSORED</text></g><g class="relationship" transform="translate(-356.0381506989188 75.82800335138083) rotate(339.86015892955675)"><path class="outline" fill="#A5ABB6" stroke="none" d="M 25 0.5 L 109.18687776895683 0.5 L 109.18687776895683 -0.5 L 25 -0.5 Z M 178.30797151895683 0.5 L 262.49484928791367 0.5 L 262.49484928791367 3.5 L 269.49484928791367 0 L 262.49484928791367 -3.5 L 262.49484928791367 -0.5 L 178.30797151895683 -0.5 Z"/><text text-anchor="middle" pointer-events="none" font-size="8px" fill="#000000" x="143.74742464395683" y="3" font-family="sans-serif">COSPONSORED</text></g><g class="relationship" transform="translate(-148.10440283171724 142.84384699078282) rotate(292.14914763876374)"><path class="outline" fill="#A5ABB6" stroke="none" d="M 25 6.5 L 137.83235100821435 6.5 L 137.83235100821435 9.5 L 156.83235100821435 0 L 137.83235100821435 -9.5 L 137.83235100821435 -6.5 L 25 -6.5 Z"/><text text-anchor="middle" pointer-events="none" font-size="8px" fill="#FFFFFF" x="81.41617550410717" y="3" font-family="sans-serif">SPONSORED</text></g><g class="relationship" transform="translate(-405.03708399250615 -183.399688167296) rotate(394.3035299820941)"><path class="outline" fill="#A5ABB6" stroke="none" d="M 25 6.5 L 241.23338775861185 6.5 L 241.23338775861185 9.5 L 260.23338775861185 0 L 241.23338775861185 -9.5 L 241.23338775861185 -6.5 L 25 -6.5 Z"/><text text-anchor="middle" pointer-events="none" font-size="8px" fill="#FFFFFF" x="133.11669387930593" y="3" font-family="sans-serif">SPONSORED</text></g><g class="relationship" transform="translate(-426.1823829548057 -17.415159219177937) rotate(358.83232359545445)"><path class="outline" fill="#A5ABB6" stroke="none" d="M 25 0.5 L 90.3492241796757 0.5 L 90.3492241796757 -0.5 L 25 -0.5 Z M 159.4703179296757 0.5 L 224.8195421093514 0.5 L 224.8195421093514 3.5 L 231.8195421093514 0 L 224.8195421093514 -3.5 L 224.8195421093514 -0.5 L 159.4703179296757 -0.5 Z"/><text text-anchor="middle" pointer-events="none" font-size="8px" fill="#000000" x="124.9097710546757" y="3" font-family="sans-serif">COSPONSORED</text></g><g class="relationship" transform="translate(143.79115022239364 318.02569552130774) rotate(263.8181075302965)"><path class="outline" fill="#A5ABB6" stroke="none" d="M 25 6.5 L 288.41482853896616 6.5 L 288.41482853896616 9.5 L 307.41482853896616 0 L 288.41482853896616 -9.5 L 288.41482853896616 -6.5 L 25 -6.5 Z"/><text text-anchor="middle" pointer-events="none" font-size="8px" fill="#FFFFFF" x="156.70741426948308" y="3" transform="rotate(180 156.70741426948308 0)" font-family="sans-serif">SPONSORED</text></g><g class="relationship" transform="translate(220.34774098413274 294.3649988715639) rotate(249.8881208960429)"><path class="outline" fill="#A5ABB6" stroke="none" d="M 25 0.5 L 125.31200157310695 0.5 L 125.31200157310695 -0.5 L 25 -0.5 Z M 194.43309532310695 0.5 L 294.7450968962139 0.5 L 294.7450968962139 3.5 L 301.7450968962139 0 L 294.7450968962139 -3.5 L 294.7450968962139 -0.5 L 194.43309532310695 -0.5 Z"/><text text-anchor="middle" pointer-events="none" font-size="8px" fill="#000000" x="159.87254844810695" y="3" transform="rotate(180 159.87254844810695 0)" font-family="sans-serif">COSPONSORED</text></g><g class="relationship" transform="translate(511.8192724827384 24.560966383936346) rotate(181.71556957452265)"><path class="outline" fill="#A5ABB6" stroke="none" d="M 25 6.5 L 114.08857387849082 6.5 L 114.08857387849082 9.5 L 133.08857387849082 0 L 114.08857387849082 -9.5 L 114.08857387849082 -6.5 L 25 -6.5 Z"/><text text-anchor="middle" pointer-events="none" font-size="8px" fill="#FFFFFF" x="69.54428693924541" y="3" transform="rotate(180 69.54428693924541 0)" font-family="sans-serif">SPONSORED</text></g><g class="relationship" transform="translate(512.7400705613223 105.01187230332252) rotate(208.189263622802)"><path class="outline" fill="#A5ABB6" stroke="none" d="M 25 0.5 L 52.1028045076948 0.5 L 52.1028045076948 -0.5 L 25 -0.5 Z M 121.2238982576948 0.5 L 148.3267027653896 0.5 L 148.3267027653896 3.5 L 155.3267027653896 0 L 148.3267027653896 -3.5 L 148.3267027653896 -0.5 L 121.2238982576948 -0.5 Z"/><text text-anchor="middle" pointer-events="none" font-size="8px" fill="#000000" x="86.6633513826948" y="3" transform="rotate(180 86.6633513826948 0)" font-family="sans-serif">COSPONSORED</text></g><g class="relationship" transform="translate(331.4596438079311 165.97958509960003) rotate(207.15472833126455)"><path class="outline" fill="#A5ABB6" stroke="none" d="M 25 6.5 L 304.35853110690135 6.5 L 304.35853110690135 9.5 L 323.35853110690135 0 L 304.35853110690135 -9.5 L 304.35853110690135 -6.5 L 25 -6.5 Z"/><text text-anchor="middle" pointer-events="none" font-size="8px" fill="#FFFFFF" x="164.67926555345068" y="3" transform="rotate(180 164.67926555345068 0)" font-family="sans-serif">SPONSORED</text></g><g class="relationship" transform="translate(458.2051756456219 -67.77950858015474) rotate(530.2844112751151)"><path class="outline" fill="#A5ABB6" stroke="none" d="M 25 0.5 L 183.4702552710328 0.5 L 183.4702552710328 -0.5 L 25 -0.5 Z M 252.5913490210328 0.5 L 411.0616042920656 0.5 L 411.0616042920656 3.5 L 418.0616042920656 0 L 411.0616042920656 -3.5 L 411.0616042920656 -0.5 L 252.5913490210328 -0.5 Z"/><text text-anchor="middle" pointer-events="none" font-size="8px" fill="#000000" x="218.0308021460328" y="3" transform="rotate(180 218.0308021460328 0)" font-family="sans-serif">COSPONSORED</text></g><g class="relationship" transform="translate(-176.0787246343281 278.7188261340502) rotate(306.02134006478667)"><path class="outline" fill="#A5ABB6" stroke="none" d="M 25 0.5 L 129.92227157258796 0.5 L 129.92227157258796 -0.5 L 25 -0.5 Z M 199.04336532258796 0.5 L 303.9656368951759 0.5 L 303.9656368951759 3.5 L 310.9656368951759 0 L 303.9656368951759 -3.5 L 303.9656368951759 -0.5 L 199.04336532258796 -0.5 Z"/><text text-anchor="middle" pointer-events="none" font-size="8px" fill="#000000" x="164.48281844758796" y="3" font-family="sans-serif">COSPONSORED</text></g><g class="relationship" transform="translate(-236.64081717026846 225.2740090871852) rotate(328.04044450704555)"><path class="outline" fill="#A5ABB6" stroke="none" d="M 25 0.5 L 243.41560559837848 0.5 L 243.41560559837848 -0.5 L 25 -0.5 Z M 312.5366993483785 0.5 L 530.952304946757 0.5 L 530.952304946757 3.5 L 537.952304946757 0 L 530.952304946757 -3.5 L 530.952304946757 -0.5 L 312.5366993483785 -0.5 Z"/><text text-anchor="middle" pointer-events="none" font-size="8px" fill="#000000" x="277.9761524733785" y="3" font-family="sans-serif">COSPONSORED</text></g><g class="relationship" transform="translate(247.44737510392767 201.11763847932272) rotate(268.6470645088434)"><path class="outline" fill="#A5ABB6" stroke="none" d="M 25 0.5 L 98.89054561398933 0.5 L 98.89054561398933 -0.5 L 25 -0.5 Z M 168.01163936398933 0.5 L 241.90218497797866 0.5 L 241.90218497797866 3.5 L 248.90218497797866 0 L 241.90218497797866 -3.5 L 241.90218497797866 -0.5 L 168.01163936398933 -0.5 Z"/><text text-anchor="middle" pointer-events="none" font-size="8px" fill="#000000" x="133.45109248898933" y="3" transform="rotate(180 133.45109248898933 0)" font-family="sans-serif">COSPONSORED</text></g><g class="relationship" transform="translate(511.8192724827384 24.560966383936346) rotate(199.75525031923894)"><path class="outline" fill="#A5ABB6" stroke="none" d="M 25 0.5 L 105.82747481677984 0.5 L 105.82747481677984 -0.5 L 25 -0.5 Z M 174.94856856677984 0.5 L 255.77604338355968 0.5 L 255.77604338355968 3.5 L 262.7760433835597 0 L 255.77604338355968 -3.5 L 255.77604338355968 -0.5 L 174.94856856677984 -0.5 Z"/><text text-anchor="middle" pointer-events="none" font-size="8px" fill="#000000" x="140.38802169177984" y="3" transform="rotate(180 140.38802169177984 0)" font-family="sans-serif">COSPONSORED</text></g><g class="relationship" transform="translate(331.4596438079311 165.97958509960003) rotate(249.23978607419934)"><path class="outline" fill="#A5ABB6" stroke="none" d="M 25 0.5 L 89.57014055928147 0.5 L 89.57014055928147 -0.5 L 25 -0.5 Z M 158.69123430928147 0.5 L 223.26137486856294 0.5 L 223.26137486856294 3.5 L 230.26137486856294 0 L 223.26137486856294 -3.5 L 223.26137486856294 -0.5 L 158.69123430928147 -0.5 Z"/><text text-anchor="middle" pointer-events="none" font-size="8px" fill="#000000" x="124.13068743428147" y="3" transform="rotate(180 124.13068743428147 0)" font-family="sans-serif">COSPONSORED</text></g><g class="relationship" transform="translate(-148.10440283171724 142.84384699078282) rotate(331.0136458697373)"><path class="outline" fill="#A5ABB6" stroke="none" d="M 25 0.5 L 184.34087309969522 0.5 L 184.34087309969522 -0.5 L 25 -0.5 Z M 253.46196684969522 0.5 L 412.80283994939043 0.5 L 412.80283994939043 3.5 L 419.80283994939043 0 L 412.80283994939043 -3.5 L 412.80283994939043 -0.5 L 253.46196684969522 -0.5 Z"/><text text-anchor="middle" pointer-events="none" font-size="8px" fill="#000000" x="218.90141997469522" y="3" font-family="sans-serif">COSPONSORED</text></g><g class="relationship" transform="translate(418.97023346777985 -155.82437975061683) rotate(517.7247226987719)"><path class="outline" fill="#A5ABB6" stroke="none" d="M 25 0.5 L 176.70254578011452 0.5 L 176.70254578011452 -0.5 L 25 -0.5 Z M 245.82363953011452 0.5 L 397.52618531022904 0.5 L 397.52618531022904 3.5 L 404.52618531022904 0 L 397.52618531022904 -3.5 L 397.52618531022904 -0.5 L 245.82363953011452 -0.5 Z"/><text text-anchor="middle" pointer-events="none" font-size="8px" fill="#000000" x="211.26309265511452" y="3" transform="rotate(180 211.26309265511452 0)" font-family="sans-serif">COSPONSORED</text></g><g class="relationship" transform="translate(418.97023346777985 -155.82437975061683) rotate(530.8542533292615)"><path class="outline" fill="#A5ABB6" stroke="none" d="M 25 0.5 L 135.06395627541676 0.5 L 135.06395627541676 -0.5 L 25 -0.5 Z M 204.18505002541676 0.5 L 314.2490063008335 0.5 L 314.2490063008335 3.5 L 321.2490063008335 0 L 314.2490063008335 -3.5 L 314.2490063008335 -0.5 L 204.18505002541676 -0.5 Z"/><text text-anchor="middle" pointer-events="none" font-size="8px" fill="#000000" x="169.62450315041676" y="3" transform="rotate(180 169.62450315041676 0)" font-family="sans-serif">COSPONSORED</text></g><g class="relationship" transform="translate(418.97023346777985 -155.82437975061683) rotate(536.943224626682)"><path class="outline" fill="#A5ABB6" stroke="none" d="M 25 0.5 L 163.1360435764535 0.5 L 163.1360435764535 -0.5 L 25 -0.5 Z M 232.2571373264535 0.5 L 370.393180902907 0.5 L 370.393180902907 3.5 L 377.393180902907 0 L 370.393180902907 -3.5 L 370.393180902907 -0.5 L 232.2571373264535 -0.5 Z"/><text text-anchor="middle" pointer-events="none" font-size="8px" fill="#000000" x="197.6965904514535" y="3" transform="rotate(180 197.6965904514535 0)" font-family="sans-serif">COSPONSORED</text></g><g class="relationship" transform="translate(396.00304562827415 -234.71856126128853) rotate(525.1640151773184)"><path class="outline" fill="#A5ABB6" stroke="none" d="M 25 0.5 L 157.8989312137834 0.5 L 157.8989312137834 -0.5 L 25 -0.5 Z M 227.0200249637834 0.5 L 359.9189561775668 0.5 L 359.9189561775668 3.5 L 366.9189561775668 0 L 359.9189561775668 -3.5 L 359.9189561775668 -0.5 L 227.0200249637834 -0.5 Z"/><text text-anchor="middle" pointer-events="none" font-size="8px" fill="#000000" x="192.4594780887834" y="3" transform="rotate(180 192.4594780887834 0)" font-family="sans-serif">COSPONSORED</text></g><g class="relationship" transform="translate(-163.51121632097772 -135.59018849199737) rotate(397.62026809655754)"><path class="outline" fill="#A5ABB6" stroke="none" d="M 25 0.5 L 78.72741421043186 0.5 L 78.72741421043186 -0.5 L 25 -0.5 Z M 147.84850796043185 0.5 L 201.57592217086372 0.5 L 201.57592217086372 3.5 L 208.57592217086372 0 L 201.57592217086372 -3.5 L 201.57592217086372 -0.5 L 147.84850796043185 -0.5 Z"/><text text-anchor="middle" pointer-events="none" font-size="8px" fill="#000000" x="113.28796108543186" y="3" font-family="sans-serif">COSPONSORED</text></g><g class="relationship" transform="translate(-340.6957241591673 -256.9352824284049) rotate(401.2326284151974)"><path class="outline" fill="#A5ABB6" stroke="none" d="M 25 0.5 L 99.73309470294689 0.5 L 99.73309470294689 -0.5 L 25 -0.5 Z M 168.8541884529469 0.5 L 243.58728315589377 0.5 L 243.58728315589377 3.5 L 250.58728315589377 0 L 243.58728315589377 -3.5 L 243.58728315589377 -0.5 L 168.8541884529469 -0.5 Z"/><text text-anchor="middle" pointer-events="none" font-size="8px" fill="#000000" x="134.2936415779469" y="3" font-family="sans-serif">COSPONSORED</text></g><g class="relationship" transform="translate(-340.6957241591673 -256.9352824284049) rotate(380.4915667132226)"><path class="outline" fill="#A5ABB6" stroke="none" d="M 25 0.5 L 184.96078238624142 0.5 L 184.96078238624142 -0.5 L 25 -0.5 Z M 254.08187613624142 0.5 L 414.04265852248284 0.5 L 414.04265852248284 3.5 L 421.04265852248284 0 L 414.04265852248284 -3.5 L 414.04265852248284 -0.5 L 254.08187613624142 -0.5 Z"/><text text-anchor="middle" pointer-events="none" font-size="8px" fill="#000000" x="219.52132926124142" y="3" font-family="sans-serif">COSPONSORED</text></g><g class="relationship" transform="translate(-236.64081717026846 225.2740090871852) rotate(293.6280316516124)"><path class="outline" fill="#A5ABB6" stroke="none" d="M 25 0.5 L 167.31763585959675 0.5 L 167.31763585959675 -0.5 L 25 -0.5 Z M 236.43872960959675 0.5 L 378.7563654691935 0.5 L 378.7563654691935 3.5 L 385.7563654691935 0 L 378.7563654691935 -3.5 L 378.7563654691935 -0.5 L 236.43872960959675 -0.5 Z"/><text text-anchor="middle" pointer-events="none" font-size="8px" fill="#000000" x="201.87818273459675" y="3" font-family="sans-serif">COSPONSORED</text></g><g class="relationship" transform="translate(354.0148325939899 97.30236016281495) rotate(195.19503976766106)"><path class="outline" fill="#A5ABB6" stroke="none" d="M 25 0.5 L 134.22089733478643 0.5 L 134.22089733478643 -0.5 L 25 -0.5 Z M 203.34199108478643 0.5 L 312.56288841957286 0.5 L 312.56288841957286 3.5 L 319.56288841957286 0 L 312.56288841957286 -3.5 L 312.56288841957286 -0.5 L 203.34199108478643 -0.5 Z"/><text text-anchor="middle" pointer-events="none" font-size="8px" fill="#000000" x="168.78144420978643" y="3" transform="rotate(180 168.78144420978643 0)" font-family="sans-serif">COSPONSORED</text></g><g class="relationship" transform="translate(-148.10440283171724 142.84384699078282) rotate(312.7519288868111)"><path class="outline" fill="#A5ABB6" stroke="none" d="M 25 0.5 L 127.83439276591992 0.5 L 127.83439276591992 -0.5 L 25 -0.5 Z M 196.95548651591992 0.5 L 299.78987928183983 0.5 L 299.78987928183983 3.5 L 306.78987928183983 0 L 299.78987928183983 -3.5 L 299.78987928183983 -0.5 L 196.95548651591992 -0.5 Z"/><text text-anchor="middle" pointer-events="none" font-size="8px" fill="#000000" x="162.39493964091992" y="3" font-family="sans-serif">COSPONSORED</text></g><g class="relationship" transform="translate(247.44737510392767 201.11763847932272) rotate(220.66794208891406)"><path class="outline" fill="#A5ABB6" stroke="none" d="M 25 0.5 L 110.88441549260597 0.5 L 110.88441549260597 -0.5 L 25 -0.5 Z M 180.00550924260597 0.5 L 265.88992473521193 0.5 L 265.88992473521193 3.5 L 272.88992473521193 0 L 265.88992473521193 -3.5 L 265.88992473521193 -0.5 L 180.00550924260597 -0.5 Z"/><text text-anchor="middle" pointer-events="none" font-size="8px" fill="#000000" x="145.44496236760597" y="3" transform="rotate(180 145.44496236760597 0)" font-family="sans-serif">COSPONSORED</text></g><g class="relationship" transform="translate(-405.03708399250615 -183.399688167296) rotate(381.70519867442044)"><path class="outline" fill="#A5ABB6" stroke="none" d="M 25 0.5 L 108.09929546805532 0.5 L 108.09929546805532 -0.5 L 25 -0.5 Z M 177.22038921805532 0.5 L 260.31968468611063 0.5 L 260.31968468611063 3.5 L 267.31968468611063 0 L 260.31968468611063 -3.5 L 260.31968468611063 -0.5 L 177.22038921805532 -0.5 Z"/><text text-anchor="middle" pointer-events="none" font-size="8px" fill="#000000" x="142.65984234305532" y="3" font-family="sans-serif">COSPONSORED</text></g><g class="relationship" transform="translate(143.79115022239364 318.02569552130774) rotate(248.53621092692413)"><path class="outline" fill="#A5ABB6" stroke="none" d="M 25 0.5 L 129.0460668961635 0.5 L 129.0460668961635 -0.5 L 25 -0.5 Z M 198.1671606461635 0.5 L 302.213227542327 0.5 L 302.213227542327 3.5 L 309.213227542327 0 L 302.213227542327 -3.5 L 302.213227542327 -0.5 L 198.1671606461635 -0.5 Z"/><text text-anchor="middle" pointer-events="none" font-size="8px" fill="#000000" x="163.6066137711635" y="3" transform="rotate(180 163.6066137711635 0)" font-family="sans-serif">COSPONSORED</text></g></g><g class="layer nodes"><g class="node" transform="translate(240.9802748414065,-72.7081885529449)"><circle class="outline" cx="0" cy="0" r="25" fill="#FB95AF" stroke="#E0849B" stroke-width="2px"/><text text-anchor="middle" pointer-events="none" y="5" font-size="10px" fill="#FFFFFF" font-family="sans-serif"> hjres59-…</text></g><g class="node" transform="translate(418.97023346777985,-155.82437975061683)"><circle class="outline" cx="0" cy="0" r="25" fill="#FF756E" stroke="#E06760" stroke-width="2px"/><text text-anchor="middle" pointer-events="none" y="0" font-size="10px" fill="#FFFFFF" font-family="sans-serif"> Adrian</text><text text-anchor="middle" pointer-events="none" y="10" font-size="10px" fill="#FFFFFF" font-family="sans-serif"> Smith</text></g><g class="node" transform="translate(-82.26920198627052,239.9748069803471)"><circle class="outline" cx="0" cy="0" r="25" fill="#68BDF6" stroke="#5CA8DB" stroke-width="2px"/><text text-anchor="middle" pointer-events="none" y="0" font-size="10px" fill="#FFFFFF" font-family="sans-serif"> David</text><text text-anchor="middle" pointer-events="none" y="10" font-size="10px" fill="#FFFFFF" font-family="sans-serif"> Scott</text></g><g class="node" transform="translate(458.2051756456219,-67.77950858015474)"><circle class="outline" cx="0" cy="0" r="25" fill="#68BDF6" stroke="#5CA8DB" stroke-width="2px"/><text text-anchor="middle" pointer-events="none" y="0" font-size="10px" fill="#FFFFFF" font-family="sans-serif"> Collin C.</text><text text-anchor="middle" pointer-events="none" y="10" font-size="10px" fill="#FFFFFF" font-family="sans-serif"> Peterson</text></g><g class="node" transform="translate(177.01741113548667,-266.5451282102532)"><circle class="outline" cx="0" cy="0" r="25" fill="#68BDF6" stroke="#5CA8DB" stroke-width="2px"/><text text-anchor="middle" pointer-events="none" y="0" font-size="10px" fill="#FFFFFF" font-family="sans-serif"> Brad</text><text text-anchor="middle" pointer-events="none" y="10" font-size="10px" fill="#FFFFFF" font-family="sans-serif"> Ashford</text></g><g class="node" transform="translate(276.93678849695306,-264.1710576617415)"><circle class="outline" cx="0" cy="0" r="25" fill="#68BDF6" stroke="#5CA8DB" stroke-width="2px"/><text text-anchor="middle" pointer-events="none" y="0" font-size="10px" fill="#FFFFFF" font-family="sans-serif"> Brendan</text><text text-anchor="middle" pointer-events="none" y="10" font-size="10px" fill="#FFFFFF" font-family="sans-serif"> F. Boyle</text></g><g class="node" transform="translate(184.16032860091138,-160.87683269339303)"><circle class="outline" cx="0" cy="0" r="25" fill="#FB95AF" stroke="#E0849B" stroke-width="2px"/><text text-anchor="middle" pointer-events="none" y="5" font-size="10px" fill="#FFFFFF" font-family="sans-serif"> hjres56-…</text></g><g class="node" transform="translate(396.00304562827415,-234.71856126128853)"><circle class="outline" cx="0" cy="0" r="25" fill="#FF756E" stroke="#E06760" stroke-width="2px"/><text text-anchor="middle" pointer-events="none" y="0" font-size="10px" fill="#FFFFFF" font-family="sans-serif"> Joe</text><text text-anchor="middle" pointer-events="none" y="10" font-size="10px" fill="#FFFFFF" font-family="sans-serif"> Wilson</text></g><g class="node" transform="translate(-11.362206229970404,236.40806240913716)"><circle class="outline" cx="0" cy="0" r="25" fill="#68BDF6" stroke="#5CA8DB" stroke-width="2px"/><text text-anchor="middle" pointer-events="none" y="0" font-size="10px" fill="#FFFFFF" font-family="sans-serif"> Scott H.</text><text text-anchor="middle" pointer-events="none" y="10" font-size="10px" fill="#FFFFFF" font-family="sans-serif"> Peters</text></g><g class="node" transform="translate(-163.51121632097772,-135.59018849199737)"><circle class="outline" cx="0" cy="0" r="25" fill="#FF756E" stroke="#E06760" stroke-width="2px"/><text text-anchor="middle" pointer-events="none" y="0" font-size="10px" fill="#FFFFFF" font-family="sans-serif"> Ron</text><text text-anchor="middle" pointer-events="none" y="10" font-size="10px" fill="#FFFFFF" font-family="sans-serif"> DeSantis</text></g><g class="node" transform="translate(-10.198986602701325,-53.160488381673986)"><circle class="outline" cx="0" cy="0" r="25" fill="#FB95AF" stroke="#E0849B" stroke-width="2px"/><text text-anchor="middle" pointer-events="none" y="5" font-size="10px" fill="#FFFFFF" font-family="sans-serif"> hjres89-…</text></g><g class="node" transform="translate(-340.6957241591673,-256.9352824284049)"><circle class="outline" cx="0" cy="0" r="25" fill="#FF756E" stroke="#E06760" stroke-width="2px"/><text text-anchor="middle" pointer-events="none" y="0" font-size="10px" fill="#FFFFFF" font-family="sans-serif"> Justin</text><text text-anchor="middle" pointer-events="none" y="10" font-size="10px" fill="#FFFFFF" font-family="sans-serif"> Amash</text></g><g class="node" transform="translate(-143.90172315783582,-267.17414493093685)"><circle class="outline" cx="0" cy="0" r="25" fill="#68BDF6" stroke="#5CA8DB" stroke-width="2px"/><text text-anchor="middle" pointer-events="none" y="0" font-size="10px" fill="#FFFFFF" font-family="sans-serif"> Jared</text><text text-anchor="middle" pointer-events="none" y="10" font-size="10px" fill="#FFFFFF" font-family="sans-serif"> Polis</text></g><g class="node" transform="translate(-72.0107707606053,-151.04731583689326)"><circle class="outline" cx="0" cy="0" r="25" fill="#FB95AF" stroke="#E0849B" stroke-width="2px"/><text text-anchor="middle" pointer-events="none" y="5" font-size="10px" fill="#FFFFFF" font-family="sans-serif"> hjres54-…</text></g><g class="node" transform="translate(29.572760165436193,-300.0343192750024)"><circle class="outline" cx="0" cy="0" r="25" fill="#68BDF6" stroke="#5CA8DB" stroke-width="2px"/><text text-anchor="middle" pointer-events="none" y="0" font-size="10px" fill="#FFFFFF" font-family="sans-serif"> Daniel</text><text text-anchor="middle" pointer-events="none" y="10" font-size="10px" fill="#FFFFFF" font-family="sans-serif"> Lipinski</text></g><g class="node" transform="translate(-9.416325473655288,-254.45712755830453)"><circle class="outline" cx="0" cy="0" r="25" fill="#FF756E" stroke="#E06760" stroke-width="2px"/><text text-anchor="middle" pointer-events="none" y="0" font-size="10px" fill="#FFFFFF" font-family="sans-serif"> Steve</text><text text-anchor="middle" pointer-events="none" y="10" font-size="10px" fill="#FFFFFF" font-family="sans-serif"> Womack</text></g><g class="node" transform="translate(17.149584069900698,-134.36656638051096)"><circle class="outline" cx="0" cy="0" r="25" fill="#FB95AF" stroke="#E0849B" stroke-width="2px"/><text text-anchor="middle" pointer-events="none" y="5" font-size="10px" fill="#FFFFFF" font-family="sans-serif"> hjres9-1…</text></g><g class="node" transform="translate(354.0148325939899,97.30236016281495)"><circle class="outline" cx="0" cy="0" r="25" fill="#FF756E" stroke="#E06760" stroke-width="2px"/><text text-anchor="middle" pointer-events="none" y="0" font-size="10px" fill="#FFFFFF" font-family="sans-serif"> Diane</text><text text-anchor="middle" pointer-events="none" y="10" font-size="10px" fill="#FFFFFF" font-family="sans-serif"> Black</text></g><g class="node" transform="translate(77.12301672793144,-100.78934752991427)"><circle class="outline" cx="0" cy="0" r="25" fill="#FB95AF" stroke="#E0849B" stroke-width="2px"/><text text-anchor="middle" pointer-events="none" y="5" font-size="10px" fill="#FFFFFF" font-family="sans-serif"> hjres43-…</text></g><g class="node" transform="translate(31.071446162735924,115.41441305148015)"><circle class="outline" cx="0" cy="0" r="25" fill="#FB95AF" stroke="#E0849B" stroke-width="2px"/><text text-anchor="middle" pointer-events="none" y="5" font-size="10px" fill="#FFFFFF" font-family="sans-serif"> hjres34-…</text></g><g class="node" transform="translate(61.96547349785253,270.9482260891746)"><circle class="outline" cx="0" cy="0" r="25" fill="#68BDF6" stroke="#5CA8DB" stroke-width="2px"/><text text-anchor="middle" pointer-events="none" y="0" font-size="10px" fill="#FFFFFF" font-family="sans-serif"> Henry</text><text text-anchor="middle" pointer-events="none" y="10" font-size="10px" fill="#FFFFFF" font-family="sans-serif"> Cuellar</text></g><g class="node" transform="translate(247.44737510392767,201.11763847932272)"><circle class="outline" cx="0" cy="0" r="25" fill="#FF756E" stroke="#E06760" stroke-width="2px"/><text text-anchor="middle" pointer-events="none" y="-5" font-size="10px" fill="#FFFFFF" font-family="sans-serif"> John</text><text text-anchor="middle" pointer-events="none" y="5" font-size="10px" fill="#FFFFFF" font-family="sans-serif"> Abney</text><text text-anchor="middle" pointer-events="none" y="15" font-size="10px" fill="#FFFFFF" font-family="sans-serif"> Culber…</text></g><g class="node" transform="translate(-236.64081717026846,225.2740090871852)"><circle class="outline" cx="0" cy="0" r="25" fill="#FF756E" stroke="#E06760" stroke-width="2px"/><text text-anchor="middle" pointer-events="none" y="5" font-size="10px" fill="#FFFFFF" font-family="sans-serif"> Dave Brat</text></g><g class="node" transform="translate(-133.4431516833302,-75.29078942243822)"><circle class="outline" cx="0" cy="0" r="25" fill="#FB95AF" stroke="#E0849B" stroke-width="2px"/><text text-anchor="middle" pointer-events="none" y="5" font-size="10px" fill="#FFFFFF" font-family="sans-serif"> hjres55-…</text></g><g class="node" transform="translate(-79.55017171076236,-25.570289199114143)"><circle class="outline" cx="0" cy="0" r="25" fill="#FB95AF" stroke="#E0849B" stroke-width="2px"/><text text-anchor="middle" pointer-events="none" y="5" font-size="10px" fill="#FFFFFF" font-family="sans-serif"> hjres10-…</text></g><g class="node selected" transform="translate(-148.10440283171724,142.84384699078282)"><circle class="outline" cx="0" cy="0" r="25" fill="#FF756E" stroke="#E06760" stroke-width="2px"/><text text-anchor="middle" pointer-events="none" y="0" font-size="10px" fill="#FFFFFF" font-family="sans-serif"> Sam</text><text text-anchor="middle" pointer-events="none" y="10" font-size="10px" fill="#FFFFFF" font-family="sans-serif"> Johnson</text></g><g class="node" transform="translate(-356.0381506989188,75.82800335138083)"><circle class="outline" cx="0" cy="0" r="25" fill="#68BDF6" stroke="#5CA8DB" stroke-width="2px"/><text text-anchor="middle" pointer-events="none" y="0" font-size="10px" fill="#FFFFFF" font-family="sans-serif"> Xavier</text><text text-anchor="middle" pointer-events="none" y="10" font-size="10px" fill="#FFFFFF" font-family="sans-serif"> Becerra</text></g><g class="node" transform="translate(-405.03708399250615,-183.399688167296)"><circle class="outline" cx="0" cy="0" r="25" fill="#FF756E" stroke="#E06760" stroke-width="2px"/><text text-anchor="middle" pointer-events="none" y="0" font-size="10px" fill="#FFFFFF" font-family="sans-serif"> Steve</text><text text-anchor="middle" pointer-events="none" y="10" font-size="10px" fill="#FFFFFF" font-family="sans-serif"> Stivers</text></g><g class="node" transform="translate(-169.4161722208513,-22.64872727390464)"><circle class="outline" cx="0" cy="0" r="25" fill="#FB95AF" stroke="#E0849B" stroke-width="2px"/><text text-anchor="middle" pointer-events="none" y="5" font-size="10px" fill="#FFFFFF" font-family="sans-serif"> hjres81-…</text></g><g class="node" transform="translate(-426.1823829548057,-17.415159219177937)"><circle class="outline" cx="0" cy="0" r="25" fill="#68BDF6" stroke="#5CA8DB" stroke-width="2px"/><text text-anchor="middle" pointer-events="none" y="0" font-size="10px" fill="#FFFFFF" font-family="sans-serif"> Kyrsten</text><text text-anchor="middle" pointer-events="none" y="10" font-size="10px" fill="#FFFFFF" font-family="sans-serif"> Sinema</text></g><g class="node" transform="translate(107.9950052937624,-12.456156084553811)"><circle class="outline" cx="0" cy="0" r="25" fill="#FB95AF" stroke="#E0849B" stroke-width="2px"/><text text-anchor="middle" pointer-events="none" y="5" font-size="10px" fill="#FFFFFF" font-family="sans-serif"> hjres63-…</text></g><g class="node" transform="translate(143.79115022239364,318.02569552130774)"><circle class="outline" cx="0" cy="0" r="25" fill="#FF756E" stroke="#E06760" stroke-width="2px"/><text text-anchor="middle" pointer-events="none" y="0" font-size="10px" fill="#FFFFFF" font-family="sans-serif"> Edward</text><text text-anchor="middle" pointer-events="none" y="10" font-size="10px" fill="#FFFFFF" font-family="sans-serif"> R. Royce</text></g><g class="node" transform="translate(220.34774098413274,294.3649988715639)"><circle class="outline" cx="0" cy="0" r="25" fill="#68BDF6" stroke="#5CA8DB" stroke-width="2px"/><text text-anchor="middle" pointer-events="none" y="0" font-size="10px" fill="#FFFFFF" font-family="sans-serif"> Eliot L.</text><text text-anchor="middle" pointer-events="none" y="10" font-size="10px" fill="#FFFFFF" font-family="sans-serif"> Engel</text></g><g class="node" transform="translate(512.7400705613223,105.01187230332252)"><circle class="outline" cx="0" cy="0" r="25" fill="#68BDF6" stroke="#5CA8DB" stroke-width="2px"/><text text-anchor="middle" pointer-events="none" y="0" font-size="10px" fill="#FFFFFF" font-family="sans-serif"> Tulsi</text><text text-anchor="middle" pointer-events="none" y="10" font-size="10px" fill="#FFFFFF" font-family="sans-serif"> Gabbard</text></g><g class="node" transform="translate(511.8192724827384,24.560966383936346)"><circle class="outline" cx="0" cy="0" r="25" fill="#FF756E" stroke="#E06760" stroke-width="2px"/><text text-anchor="middle" pointer-events="none" y="0" font-size="10px" fill="#FFFFFF" font-family="sans-serif"> Rodney</text><text text-anchor="middle" pointer-events="none" y="10" font-size="10px" fill="#FFFFFF" font-family="sans-serif"> Davis</text></g><g class="node" transform="translate(353.8015599579919,19.828132203276482)"><circle class="outline" cx="0" cy="0" r="25" fill="#FB95AF" stroke="#E0849B" stroke-width="2px"/><text text-anchor="middle" pointer-events="none" y="5" font-size="10px" fill="#FFFFFF" font-family="sans-serif"> hjres61-…</text></g><g class="node" transform="translate(21.498142125581296,6.990485882765043)"><circle class="outline" cx="0" cy="0" r="25" fill="#FB95AF" stroke="#E0849B" stroke-width="2px"/><text text-anchor="middle" pointer-events="none" y="5" font-size="10px" fill="#FFFFFF" font-family="sans-serif"> hjres2-1…</text></g><g class="node" transform="translate(331.4596438079311,165.97958509960003)"><circle class="outline" cx="0" cy="0" r="25" fill="#FF756E" stroke="#E06760" stroke-width="2px"/><text text-anchor="middle" pointer-events="none" y="0" font-size="10px" fill="#FFFFFF" font-family="sans-serif"> Bob</text><text text-anchor="middle" pointer-events="none" y="10" font-size="10px" fill="#FFFFFF" font-family="sans-serif"> Goodlat…</text></g><g class="node" transform="translate(-176.0787246343281,278.7188261340502)"><circle class="outline" cx="0" cy="0" r="25" fill="#68BDF6" stroke="#5CA8DB" stroke-width="2px"/><text text-anchor="middle" pointer-events="none" y="0" font-size="10px" fill="#FFFFFF" font-family="sans-serif"> Peter A.</text><text text-anchor="middle" pointer-events="none" y="10" font-size="10px" fill="#FFFFFF" font-family="sans-serif"> DeFazio</text></g></g></svg>